<?xml version="1.0" standalone="no"?>
<!DOCTYPE svg PUBLIC "-//W3C//DTD SVG 20010904//EN"
 "http://www.w3.org/TR/2001/REC-SVG-20010904/DTD/svg10.dtd">
<svg version="1.0" xmlns="http://www.w3.org/2000/svg"
 width="2816.000000pt" height="1536.000000pt" viewBox="0 0 2816.000000 1536.000000"
 preserveAspectRatio="xMidYMid meet">

<g transform="translate(0.000000,1536.000000) scale(0.100000,-0.100000)"
fill="#000000" stroke="none">
<path d="M5105 10898 c-170 -20 -374 -105 -505 -211 -149 -121 -274 -318 -326
-512 l-26 -100 -5 -2341 c-5 -2582 -8 -2432 57 -2629 105 -317 395 -569 735
-640 67 -13 338 -15 2368 -15 1579 0 2312 3 2353 11 453 81 759 415 814 890
10 85 5 4531 -5 4675 -11 143 -77 334 -161 459 -147 222 -410 381 -684 413
-95 11 -4520 11 -4615 0z m545 -14 c0 -8 -19 -13 -24 -6 -3 5 1 9 9 9 8 0 15
-2 15 -3z m467 -19 c-23 -22 -33 -18 -12 5 10 11 20 18 23 16 2 -3 -3 -12 -11
-21z m113 9 c0 -2 -7 -4 -15 -4 -8 0 -15 4 -15 10 0 5 7 7 15 4 8 -4 15 -8 15
-10z m74 -3 c11 -10 13 -17 6 -26 -7 -8 -5 -12 6 -12 12 0 14 7 10 28 -4 22
-2 27 12 24 9 -1 16 -8 14 -15 -1 -6 2 -9 8 -5 6 3 8 10 5 15 -3 4 470 8 1050
9 852 1 1055 -1 1055 -11 0 -9 2 -10 8 -2 10 16 692 19 692 3 0 -5 -5 -7 -10
-4 -16 10 -46 -3 -56 -24 -8 -18 -10 -18 -24 -3 -13 14 -12 15 3 9 9 -3 17 -2
17 2 0 5 -7 12 -16 15 -10 4 -26 -6 -45 -27 -25 -27 -31 -29 -39 -17 -5 8 -7
24 -3 35 5 17 4 18 -10 6 -9 -7 -14 -17 -11 -22 10 -18 -12 -9 -29 11 -10 12
-22 18 -27 15 -13 -8 -3 -25 16 -25 8 0 14 -4 14 -10 0 -5 9 -10 19 -10 11 0
23 -5 26 -10 9 -15 -15 -42 -31 -36 -8 3 -18 -4 -24 -14 -7 -14 -7 -20 0 -20
5 0 10 5 10 10 0 6 5 10 10 10 16 0 12 -22 -7 -35 -14 -10 0 -13 78 -14 268
-4 574 -13 578 -17 2 -2 -1001 -4 -2230 -4 -1229 0 -2252 -3 -2274 -6 -22 -4
-37 -4 -34 0 19 20 124 26 502 26 221 0 277 3 277 13 0 7 10 18 23 23 12 6 17
9 10 7 -16 -3 -26 14 -13 22 13 8 42 -14 34 -26 -3 -5 11 -8 31 -7 35 3 36 4
31 33 -6 27 -5 28 7 11 12 -17 14 -17 20 -3 3 9 -1 24 -10 32 -23 24 -11 26
17 3 14 -11 19 -17 13 -13 -7 3 -13 4 -13 1 0 -10 60 -34 66 -25 3 5 10 9 15
9 6 0 3 -7 -5 -15 -12 -12 -20 -13 -35 -5 -17 8 -22 6 -31 -12 -10 -21 -10
-21 3 -5 13 15 15 15 20 2 4 -8 13 -12 21 -9 8 3 17 1 21 -5 4 -8 12 -8 26 0
12 6 24 8 27 4 3 -3 -4 -8 -16 -12 -32 -8 -27 -20 8 -20 20 0 26 3 18 9 -8 5
-9 11 -3 16 14 10 18 42 6 42 -5 0 -11 -6 -14 -12 -4 -10 -7 -10 -18 0 -11 10
-10 12 5 12 9 0 15 4 12 9 -4 5 4 7 16 3 14 -3 19 -1 14 6 -3 6 -2 13 3 17 6
3 7 13 4 23 -6 15 -5 15 11 3 9 -8 13 -17 8 -20 -5 -3 -11 -16 -14 -28 -4 -16
-2 -20 8 -16 8 3 11 9 8 14 -7 13 10 11 23 -2 8 -8 13 -8 18 0 3 6 1 10 -5 9
-15 -4 -22 29 -9 38 5 3 15 2 21 -2 21 -14 52 -12 67 4 13 13 11 14 -15 10
-16 -3 -23 -3 -16 -1 10 4 10 8 2 18 -15 18 11 15 34 -4z m2924 -5 c0 -12 -2
-16 -6 -10 -4 6 -16 16 -27 22 -19 11 -18 11 6 10 17 -2 26 -8 27 -22z m39 18
c-3 -3 -12 -4 -19 -1 -8 3 -5 6 6 6 11 1 17 -2 13 -5z m80 0 c-3 -3 -12 -4
-19 -1 -8 3 -5 6 6 6 11 1 17 -2 13 -5z m-3351 -13 c-8 -12 14 -19 47 -16 15
2 29 -1 32 -5 3 -5 -6 -7 -21 -4 -20 4 -25 1 -21 -10 4 -10 -4 -8 -27 7 -21
14 -29 25 -22 29 15 10 18 10 12 -1z m-293 -26 c-7 -21 -13 -19 -13 6 0 11 4
18 10 14 5 -3 7 -12 3 -20z m-76 0 c0 -8 -4 -12 -9 -9 -5 3 -6 10 -3 15 9 13
12 11 12 -6z m4293 -10 c46 -18 9 -18 -45 0 -31 10 -34 13 -15 13 14 0 41 -6
60 -13z m-5011 1 c-15 -13 -49 -25 -49 -17 0 5 8 12 18 14 24 6 36 8 31 3z
m1045 -4 c3 -5 -1 -9 -9 -9 -8 0 -15 4 -15 9 0 4 4 8 9 8 6 0 12 -4 15 -8z
m156 4 c0 -2 -7 -7 -16 -10 -8 -3 -12 -2 -9 4 6 10 25 14 25 6z m-40 -16 c0
-5 -4 -10 -10 -10 -5 0 -10 5 -10 10 0 6 5 10 10 10 6 0 10 -4 10 -10z m-120
-42 c0 -14 -12 -8 -31 14 -11 11 -19 23 -19 25 0 7 49 -32 50 -39z m3070 15
c0 -13 -14 -28 -28 -31 -10 -2 -10 2 -2 18 10 19 30 28 30 13z m1048 -21 c12
-8 21 -17 18 -19 -4 -5 -86 35 -86 41 0 8 45 -7 68 -22z m-997 8 c1 -5 2 -16
3 -22 1 -7 7 -12 14 -10 7 1 12 -2 12 -8 0 -17 -20 -11 -45 14 -16 17 -20 26
-12 29 20 9 27 8 28 -3z m39 0 c0 -5 -4 -10 -10 -10 -5 0 -10 5 -10 10 0 6 5
10 10 10 6 0 10 -4 10 -10z m-3392 -45 c-3 -3 -9 2 -12 12 -6 14 -5 15 5 6 7
-7 10 -15 7 -18z m107 7 c-3 -3 -11 0 -18 7 -9 10 -8 11 6 5 10 -3 15 -9 12
-12z m-75 -2 c0 -5 -4 -10 -10 -10 -5 0 -10 5 -10 10 0 6 5 10 10 10 6 0 10
-4 10 -10z m3280 2 c0 -4 -9 -8 -20 -9 -11 -1 -20 2 -20 8 0 5 9 9 20 9 11 0
20 -4 20 -8z m1145 -37 c68 -51 87 -79 28 -41 -43 29 -108 86 -96 86 4 0 35
-20 68 -45z m-128 9 c-3 -3 -12 -4 -19 -1 -8 3 -5 6 6 6 11 1 17 -2 13 -5z
m-390 -10 c-3 -3 -12 -4 -19 -1 -8 3 -5 6 6 6 11 1 17 -2 13 -5z m-5087 -74
c-6 -11 -16 -20 -22 -20 -6 0 -3 9 7 20 10 11 20 20 22 20 2 0 -1 -9 -7 -20z
m5774 -87 c24 -31 57 -83 52 -83 -2 0 -22 25 -44 55 -42 55 -48 78 -8 28z
m-5954 -148 c0 -8 -4 -15 -10 -15 -5 0 -7 7 -4 15 4 8 8 15 10 15 2 0 4 -7 4
-15z m6075 -45 c3 -5 1 -10 -4 -10 -6 0 -11 5 -11 10 0 6 2 10 4 10 3 0 8 -4
11 -10z m51 -148 c4 -21 3 -32 -5 -32 -6 0 -11 8 -11 18 0 9 -3 28 -6 42 -5
18 -4 22 4 15 7 -6 15 -25 18 -43z m-3541 -361 c538 -92 897 -432 996 -943 24
-127 26 -391 3 -523 -20 -113 -66 -260 -111 -350 -73 -145 -224 -320 -358
-417 -120 -86 -312 -162 -505 -199 -106 -21 -150 -23 -572 -27 l-458 -3 0
-758 c0 -417 -3 -799 -6 -849 l-7 -92 -352 0 c-313 0 -354 2 -359 16 -9 22 -7
4159 1 4168 4 4 367 5 808 3 751 -5 807 -6 920 -26z m3185 -2211 c211 -15 200
-11 200 -73 l0 -53 -73 7 c-40 4 -128 10 -194 14 -113 7 -121 6 -126 -11 -11
-37 -78 -447 -73 -451 5 -5 434 16 454 22 9 4 12 -83 12 -410 0 -228 -1 -415
-2 -415 -3 0 -57 -5 -573 -49 -126 -11 -392 -32 -590 -46 -499 -36 -596 -48
-651 -80 -24 -14 -44 -27 -44 -28 0 -3 -1 -3 915 23 374 11 740 22 813 26
l132 6 0 -85 0 -85 -102 -6 c-139 -8 -2141 -23 -2149 -16 -4 3 -4 43 0 90 13
168 -17 301 -94 411 -106 153 -255 229 -444 229 -263 -1 -462 -161 -531 -430
-19 -71 -21 -100 -16 -180 4 -52 9 -105 13 -118 l6 -25 -89 7 c-268 20 -460
62 -516 113 -17 15 -17 17 12 34 26 16 30 25 30 61 0 24 -12 79 -27 123 -21
65 -25 97 -24 170 2 147 15 190 74 253 66 69 151 118 305 176 253 94 595 160
1175 226 100 12 138 28 407 179 294 164 560 282 737 327 240 61 693 89 1033
64z m-2412 -1126 c209 -101 298 -325 221 -554 -19 -56 -34 -77 -103 -146 -71
-71 -89 -84 -146 -102 -92 -29 -150 -35 -222 -22 -154 28 -272 126 -329 274
-28 74 -31 89 -27 172 5 120 42 200 137 295 56 55 77 70 141 92 96 34 111 36
190 31 47 -4 85 -14 138 -40z"/>
<path d="M6406 10865 c4 -8 11 -15 16 -15 6 0 5 6 -2 15 -7 8 -14 15 -16 15
-2 0 -1 -7 2 -15z"/>
<path d="M8735 10868 c-5 -7 -5 -10 0 -6 4 4 14 3 21 -3 8 -7 14 -7 19 1 5 8
12 7 23 -2 15 -12 16 -11 3 5 -9 12 -17 14 -26 7 -7 -6 -15 -6 -22 1 -8 8 -13
7 -18 -3z"/>
<path d="M9016 10872 c-3 -5 1 -9 9 -9 8 0 15 4 15 9 0 4 -4 8 -9 8 -6 0 -12
-4 -15 -8z"/>
<path d="M8410 10859 c0 -5 5 -7 10 -4 6 3 10 8 10 11 0 2 -4 4 -10 4 -5 0
-10 -5 -10 -11z"/>
<path d="M8745 10841 c3 -5 1 -12 -5 -16 -13 -8 -13 -35 1 -35 5 0 8 4 4 9 -3
5 1 16 10 24 13 13 13 16 -1 21 -8 3 -12 2 -9 -3z"/>
<path d="M6229 10828 c15 -20 41 -24 41 -7 0 6 -6 9 -14 6 -7 -3 -20 0 -27 6
-11 10 -11 9 0 -5z"/>
<path d="M8780 10823 c0 -7 -6 -13 -12 -13 -7 0 -5 -5 5 -11 10 -6 21 -8 24
-5 4 3 0 6 -7 6 -10 0 -9 5 3 18 15 16 15 19 2 19 -8 0 -15 -6 -15 -14z"/>
<path d="M8856 10825 c-3 -8 -3 -15 0 -15 3 0 12 7 20 15 13 13 13 15 1 15 -8
0 -17 -7 -21 -15z"/>
<path d="M8925 10830 c-3 -5 -11 -8 -16 -5 -5 4 -4 -5 2 -19 10 -22 15 -24 33
-14 12 6 22 12 24 13 1 1 -6 10 -17 19 -13 12 -21 14 -26 6z"/>
<path d="M6327 10818 c-10 -5 -24 -7 -32 -4 -7 2 -19 -2 -25 -10 -7 -8 -10
-15 -6 -15 3 -1 9 -2 14 -3 4 -1 14 -5 22 -11 13 -8 13 -7 1 8 -10 13 -11 17
-1 17 7 0 19 -8 26 -17 7 -10 16 -14 20 -10 5 4 2 12 -6 18 -13 8 -13 10 0 18
20 14 9 22 -13 9z"/>
<path d="M8836 10790 c7 -7 19 -7 35 -1 23 9 22 10 -10 10 -24 1 -32 -2 -25
-9z"/>
<path d="M6183 10754 c0 -7 9 -14 19 -14 10 0 18 -4 18 -10 0 -5 5 -10 11 -10
14 0 -7 27 -31 40 -12 6 -17 5 -17 -6z"/>
<path d="M8728 10763 c6 -2 18 -2 25 0 6 3 1 5 -13 5 -14 0 -19 -2 -12 -5z"/>
<path d="M8828 10763 c7 -3 16 -2 19 1 4 3 -2 6 -13 5 -11 0 -14 -3 -6 -6z"/>
<path d="M5874 10735 c-17 -13 -9 -14 74 -15 85 0 110 8 80 26 -7 4 -8 3 -4
-4 5 -8 0 -12 -13 -12 -10 0 -22 6 -24 13 -4 9 -8 8 -16 -3 -8 -12 -11 -12
-11 -1 0 9 -4 10 -12 4 -15 -11 -28 -11 -44 -1 -6 4 -20 1 -30 -7z"/>
<path d="M6050 10735 c0 -8 7 -15 15 -15 9 0 12 6 9 15 -4 8 -10 15 -15 15 -5
0 -9 -7 -9 -15z"/>
<path d="M6256 10735 c-3 -9 0 -15 10 -15 8 0 13 4 10 9 -4 5 0 12 6 14 8 4 7
6 -3 6 -9 1 -19 -6 -23 -14z"/>
<path d="M6310 10730 c-12 -8 -10 -10 8 -10 13 0 20 4 17 10 -7 12 -6 12 -25
0z"/>
<path d="M5970 8624 l0 -565 418 3 c457 4 469 6 597 69 156 77 237 203 265
416 18 137 -14 313 -74 403 -42 64 -120 132 -197 170 -125 64 -183 70 -625 70
l-384 0 0 -566z"/>
<path d="M9483 7515 c-281 -28 -380 -58 -688 -210 -234 -115 -375 -199 -455
-273 l-45 -41 85 -1 86 0 50 62 c27 35 68 73 91 86 71 39 172 28 194 -21 9
-20 7 -32 -11 -67 l-22 -43 159 7 c345 14 748 38 754 44 3 4 20 60 38 124 17
64 44 156 60 205 16 48 31 100 35 116 l6 27 -102 -1 c-57 -1 -162 -7 -235 -14z"/>
<path d="M6950 6709 c-161 -18 -348 -69 -410 -110 -23 -15 -23 -18 -12 -57
l13 -42 57 0 c113 1 251 19 290 39 46 23 120 84 157 129 23 28 26 35 14 43 -8
5 -18 8 -24 8 -5 -1 -44 -5 -85 -10z"/>
<path d="M13150 8549 c-87 -36 -106 -141 -39 -209 54 -54 143 -49 194 11 19
24 25 42 25 80 0 42 -5 55 -33 85 -26 29 -42 37 -77 40 -25 2 -56 -1 -70 -7z"/>
<path d="M14899 8537 c-119 -80 -46 -254 97 -232 61 9 104 59 104 121 0 25 -7
58 -15 74 -31 61 -124 79 -186 37z"/>
<path d="M22554 8541 c-2 -2 -4 -393 -4 -868 l0 -863 185 0 185 0 0 161 0 160
84 85 c47 46 88 84 93 84 4 0 91 -111 193 -246 l185 -246 231 -1 231 -2 -54
70 c-30 39 -86 113 -125 165 -40 52 -111 145 -158 205 -48 61 -119 152 -158
204 l-71 94 20 26 c16 20 255 271 467 489 12 12 22 24 22 25 0 1 -104 0 -230
-3 l-230 -5 -250 -250 -250 -251 0 488 0 488 -181 -2 c-99 -2 -182 -5 -185 -7z"/>
<path d="M11280 8447 c0 -3 32 -76 71 -163 39 -88 117 -267 174 -399 57 -132
157 -361 222 -510 66 -148 148 -336 184 -418 l64 -147 103 2 103 3 75 175 c42
96 91 211 111 255 19 44 47 109 63 145 15 36 72 164 125 285 54 121 121 274
150 340 29 66 82 186 119 267 36 81 66 152 66 158 0 6 -36 10 -95 10 l-95 0
-19 -39 c-11 -21 -59 -128 -107 -237 -102 -235 -169 -387 -271 -619 -42 -93
-82 -187 -89 -209 -25 -69 -126 -296 -133 -296 -7 1 -53 103 -233 520 -66 151
-150 345 -187 430 -38 85 -98 220 -133 300 l-64 145 -102 3 c-56 1 -102 1
-102 -1z"/>
<path d="M18467 7634 c2 -449 5 -819 7 -822 2 -4 88 -6 190 -4 l186 3 2 232 3
232 260 6 c295 6 332 12 481 84 193 93 294 263 295 495 2 239 -95 407 -289
509 -145 75 -195 81 -702 81 l-435 0 2 -816z m871 482 c113 -37 178 -139 169
-266 -4 -73 -24 -119 -71 -168 -70 -75 -145 -92 -403 -92 l-183 0 0 276 0 276
218 -4 c170 -4 228 -8 270 -22z"/>
<path d="M20479 8090 c-152 -24 -312 -82 -378 -137 l-25 -20 64 -114 c35 -63
64 -115 65 -117 1 -1 35 13 76 33 294 139 589 72 589 -133 l0 -37 -208 -1
c-231 -1 -311 -13 -418 -63 -130 -61 -202 -161 -212 -292 -8 -115 27 -217 100
-286 93 -89 218 -133 380 -133 148 0 264 38 346 113 l42 40 0 -67 0 -66 176 0
175 0 -4 433 c-4 465 -4 469 -60 591 -15 32 -50 80 -80 110 -101 101 -229 145
-442 151 -71 2 -155 0 -186 -5z m401 -794 c0 -81 -17 -127 -65 -172 -55 -53
-126 -78 -221 -78 -85 1 -156 30 -179 75 -22 42 -19 121 6 153 45 57 105 70
352 72 l107 1 0 -51z"/>
<path d="M22192 8085 c-88 -19 -158 -54 -218 -108 -29 -26 -55 -47 -58 -47 -3
0 -6 34 -6 75 l0 75 -175 0 -175 0 0 -640 0 -640 23 4 c12 3 96 5 187 5 l165
1 3 358 c3 357 3 357 28 412 36 78 69 117 123 144 61 31 157 49 221 40 l50 -7
0 166 c0 183 2 178 -68 176 -20 0 -65 -7 -100 -14z"/>
<path d="M14002 8060 c-178 -25 -328 -123 -367 -239 -27 -83 -18 -205 21 -268
62 -100 137 -135 412 -194 208 -44 269 -67 312 -115 80 -92 32 -211 -106 -264
-75 -29 -234 -32 -337 -7 -74 18 -198 72 -248 108 -36 25 -33 27 -80 -65 -17
-32 -27 -62 -22 -66 20 -20 146 -82 210 -105 93 -32 177 -45 301 -45 229 0
401 79 468 215 67 138 26 305 -97 395 -49 35 -161 70 -319 100 -165 31 -243
57 -289 96 -91 78 -72 203 39 259 123 62 347 49 503 -30 l67 -34 36 71 c40 80
43 73 -51 119 -122 59 -314 88 -453 69z"/>
<path d="M15912 8060 c-137 -19 -266 -84 -368 -185 -122 -122 -169 -249 -168
-455 1 -107 5 -137 28 -207 59 -182 199 -321 386 -383 94 -31 271 -38 374 -15
166 36 304 135 388 277 54 91 78 179 85 309 9 170 -28 302 -118 422 -46 62
-133 134 -209 172 -112 57 -269 82 -398 65z m289 -202 c123 -62 192 -143 230
-270 18 -58 21 -88 17 -181 -4 -105 -7 -117 -44 -197 -48 -101 -113 -166 -214
-214 -62 -29 -71 -31 -185 -31 -144 0 -205 20 -285 92 -69 62 -105 117 -136
209 -45 136 -34 286 31 415 33 64 65 100 129 144 90 61 143 76 272 73 105 -3
114 -5 185 -40z"/>
<path d="M17474 8061 c-122 -20 -224 -72 -299 -153 l-55 -59 0 100 0 101 -90
0 -90 0 0 -620 0 -620 94 0 95 0 3 388 3 387 30 70 c39 95 126 183 210 216 82
31 235 33 314 4 71 -26 143 -91 169 -153 36 -83 42 -163 42 -544 l0 -368 96 0
96 0 -5 413 c-3 258 -9 432 -17 466 -15 73 -72 183 -121 235 -44 49 -137 102
-212 122 -67 17 -199 25 -263 15z"/>
<path d="M13111 7443 c2 -335 5 -614 7 -620 3 -9 31 -13 93 -13 l90 0 -1 620
-1 620 -95 0 -96 0 3 -607z"/>
<path d="M14880 7430 l0 -620 90 0 c65 0 90 3 91 13 0 16 0 990 0 1125 l-1
102 -90 0 -90 0 0 -620z"/>
</g>
</svg>
