<svg xmlns="http://www.w3.org/2000/svg" viewBox="478 446 614 490" role="img" aria-label="VisionPark">
  <rect width="2816" height="1536" fill="#0f172a"/>
  <g transform="translate(0,1536) scale(0.1,-0.1)" fill="#f8fafc" stroke="none">
    <path d="M5105 10898 c-170 -20 -374 -105 -505 -211 -149 -121 -274 -318 -326
-512 l-26 -100 -5 -2341 c-5 -2582 -8 -2432 57 -2629 105 -317 395 -569 735
-640 67 -13 338 -15 2368 -15 1579 0 2312 3 2353 11 453 81 759 415 814 890
10 85 5 4531 -5 4675 -11 143 -77 334 -161 459 -147 222 -410 381 -684 413
-95 11 -4520 11 -4615 0z"/>
    <path d="M5970 8624 l0 -565 418 3 c457 4 469 6 597 69 156 77 237 203 265
416 18 137 -14 313 -74 403 -42 64 -120 132 -197 170 -125 64 -183 70 -625 70
l-384 0 0 -566z"/>
  </g>
</svg>
